<svg width="24" height="24" viewBox="506 260 242 242"
     xmlns="http://www.w3.org/2000/svg"
     xmlns:xlink="http://www.w3.org/1999/xlink">

  <!-- Nodes verticais centrais -->
  <path d="M609 290C609 280.611 617.507 273 628 273 638.493 273 647 280.611 647 290 647 299.389 638.493 307 628 307 617.507 307 609 299.389 609 290Z" fill="#036EF2" fill-rule="evenodd"/>
  <path d="M609 331C609 321.611 617.507 314 628 314 638.493 314 647 321.611 647 331 647 340.389 638.493 348 628 348 617.507 348 609 340.389 609 331Z" fill="#036EF2" fill-rule="evenodd"/>
  <path d="M609 372C609 362.611 617.283 355 627.5 355 637.717 355 646 362.611 646 372 646 381.389 637.717 389 627.5 389 617.283 389 609 381.389 609 372Z" fill="#036EF2" fill-rule="evenodd"/>
  <path d="M609 413C609 403.611 617.507 396 628 396 638.493 396 647 403.611 647 413 647 422.389 638.493 430 628 430 617.507 430 609 422.389 609 413Z" fill="#036EF2" fill-rule="evenodd"/>
  <path d="M609 454.5C609 445.387 617.507 438 628 438 638.493 438 647 445.387 647 454.5 647 463.613 638.493 471 628 471 617.507 471 609 463.613 609 454.5Z" fill="#036EF2" fill-rule="evenodd"/>

  <!-- Linha vertical central -->
  <rect x="624" y="292" width="8" height="157" fill="#036EF2"/>

  <!-- Nó direita nível 2 (673.5, 331) -->
  <path d="M655 331C655 321.611 663.283 314 673.5 314 683.717 314 692 321.611 692 331 692 340.389 683.717 348 673.5 348 663.283 348 655 340.389 655 331Z" fill="#036EF2" fill-rule="evenodd"/>
  <rect x="669" y="331" width="8" height="45" fill="#036EF2"/>

  <!-- Nó direita nível 3 (673.5, 372) -->
  <path d="M655 372C655 362.611 663.283 355 673.5 355 683.717 355 692 362.611 692 372 692 381.389 683.717 389 673.5 389 663.283 389 655 381.389 655 372Z" fill="#036EF2" fill-rule="evenodd"/>

  <!-- Nó direita nível 4 (719.5, 372) + linha horizontal -->
  <path d="M701 372C701 362.611 709.283 355 719.5 355 729.717 355 738 362.611 738 372 738 381.389 729.717 389 719.5 389 709.283 389 701 381.389 701 372Z" fill="#036EF2" fill-rule="evenodd"/>
  <rect x="676" y="368" width="46" height="8" fill="#036EF2"/>

  <!-- Nó esquerda nível 3 (581.5, 372) -->
  <path d="M563 372C563 362.611 571.283 355 581.5 355 591.717 355 600 362.611 600 372 600 381.389 591.717 389 581.5 389 571.283 389 563 381.389 563 372Z" fill="#036EF2" fill-rule="evenodd"/>
  <rect x="577" y="370" width="9" height="45" fill="#036EF2"/>

  <!-- Nó esquerda nível 4 (581.5, 413) -->
  <path d="M563 413C563 403.611 571.283 396 581.5 396 591.717 396 600 403.611 600 413 600 422.389 591.717 430 581.5 430 571.283 430 563 422.389 563 413Z" fill="#036EF2" fill-rule="evenodd"/>

  <!-- Nó esquerda nível 3 (536, 372) + linha horizontal -->
  <path d="M517 372C517 362.611 525.507 355 536 355 546.493 355 555 362.611 555 372 555 381.389 546.493 389 536 389 525.507 389 517 381.389 517 372Z" fill="#036EF2" fill-rule="evenodd"/>
  <rect x="531" y="368" width="45" height="8" fill="#036EF2"/>
  <rect x="532" y="364" width="8" height="45" fill="#036EF2"/>

  <!-- Nó esquerda nível 4 (536, 413) -->
  <path d="M517 413C517 403.611 525.507 396 536 396 546.493 396 555 403.611 555 413 555 422.389 546.493 430 536 430 525.507 430 517 422.389 517 413Z" fill="#036EF2" fill-rule="evenodd"/>

</svg>